<svg width="692" height="716" viewBox="0 0 692 716" fill="none" xmlns="http://www.w3.org/2000/svg">
<path d="M67.3749 79.2708C95.7433 44.3916 121.748 12.6833 125.057 8.60654C128.367 4.75625 131.677 1.35893 132.386 1.35893C133.095 1.13244 145.388 11.0979 185.576 45.7506L205.671 36.2381C216.782 30.8024 235.93 23.5547 248.223 19.7044C260.516 15.8542 282.502 10.6449 296.686 7.92708C312.525 4.98273 331.91 3.17083 346.331 3.17083C359.333 3.17083 379.663 4.75625 391.247 6.79464C402.831 8.83303 418.906 12.0039 426.708 13.8158C434.509 15.8542 448.457 19.9309 457.44 23.1018C466.423 26.2726 482.026 32.8407 509.449 45.977L560.985 0L567.84 7.92708C571.623 12.2303 585.098 28.5375 597.864 44.1651C610.393 59.7928 636.634 91.9541 655.782 115.509C675.167 139.29 691.479 159.674 691.952 160.806C692.425 162.165 689.352 168.734 684.86 175.528C680.368 182.323 673.985 193.421 670.439 199.989C667.13 206.331 661.456 219.693 658.146 229.206C654.837 238.945 651.054 255.478 649.872 266.123C648.217 280.619 648.454 289.905 651.054 303.494C652.945 313.686 658.856 332.031 665.002 345.394C670.676 358.53 677.768 376.423 680.368 385.029C682.969 393.636 686.515 406.999 688.17 414.473C689.824 421.947 691.243 440.745 691.243 456.373C691.243 476.078 689.824 489.214 686.988 499.406C684.86 507.559 678.713 522.281 673.749 532.247C668.548 542.212 658.619 556.934 651.291 565.087C643.962 573.241 631.906 584.792 624.577 590.68C617.249 596.796 605.665 604.27 599.282 607.441C592.663 610.611 583.207 614.688 578.006 616.5C572.805 618.312 560.512 621.709 550.819 624.201C538.054 627.372 519.141 629.183 482.262 630.995C452.712 632.128 425.526 634.619 417.252 636.431C409.45 638.469 397.63 643.452 391.247 647.755C384.628 651.832 377.063 658.174 374.463 661.798C371.626 665.195 366.188 674.255 362.17 681.729C358.387 689.203 353.896 699.395 352.241 704.377C350.586 709.36 348.458 714.343 347.276 715.702C346.094 717.061 344.203 713.663 342.785 707.775C341.13 702.113 336.402 689.882 331.91 680.596C327.418 671.31 319.144 659.08 313.707 653.644C308.27 648.208 299.05 641.64 293.14 639.149C283.684 634.846 276.355 634.166 223.401 632.807C169.974 631.448 162.173 630.769 143.024 625.333C131.204 622.162 112.764 615.368 101.653 610.158C85.5779 602.458 77.3038 596.569 60.0464 580.036C47.517 568.032 34.5149 552.857 28.8412 543.571C23.4039 534.964 16.3118 520.016 12.7658 510.73C9.45613 501.444 5.67368 485.137 4.01885 474.492C2.12763 460.223 2.12763 449.126 4.25526 431.46C5.67368 418.323 10.1653 397.26 14.1842 384.577C17.9666 371.667 25.5315 352.415 30.496 341.544C35.6969 330.446 40.8977 315.498 42.3162 308.024C43.7346 300.549 44.9166 288.093 44.9166 280.392C44.9166 272.465 43.2618 258.196 41.1341 248.684C39.0065 238.945 33.5692 222.864 29.314 212.899C24.8223 202.933 16.3118 187.306 0 161.939L7.8013 152.426C12.293 146.991 39.0065 114.15 67.3749 79.2708Z" fill="#0B098B"/>
<path d="M51.3928 106.109C76.2113 75.2637 104.812 40.1087 115.212 27.8611C133.885 5.63413 134.121 5.63413 138.848 9.71664C141.685 12.2115 152.794 21.9642 163.903 31.49C175.012 41.2427 184.703 48.9541 185.649 48.9541C186.831 48.9541 195.813 45.0984 205.74 40.1087C215.904 35.3458 233.631 28.3148 245.45 24.4591C257.031 20.6033 277.832 15.16 291.541 12.4383C310.214 8.58261 324.16 7.44858 348.269 7.44858C371.433 7.44858 386.56 8.80942 403.815 12.2115C416.815 14.9332 438.561 20.8302 452.27 25.3663C465.979 29.9024 484.18 36.9334 492.925 41.2427C507.343 48.2737 509.471 48.7273 514.198 45.7788C517.271 44.1912 529.089 34.2117 540.435 23.7786C558.635 7.22177 561.708 5.18051 564.544 8.129C566.199 9.94345 595.272 45.552 691 162.357L682.254 175.285C677.527 182.543 669.963 195.698 665.709 204.316C661.454 212.935 655.545 227.451 652.472 236.069C648.218 248.997 647.272 257.389 647.272 281.431C647.509 306.153 648.218 312.957 652.472 323.39C655.309 330.194 661.454 345.163 666.418 356.277C671.145 367.39 677.764 386.442 680.836 398.236C684.618 412.071 687.218 429.082 687.927 445.865C688.873 461.742 688.164 478.072 686.509 487.824C684.854 496.443 680.364 511.412 676.345 520.711C672.563 530.01 665.236 543.392 660.272 550.196C655.545 557 642.545 570.836 631.672 581.042C617.254 594.197 606.854 601.454 594.09 607.578C584.399 611.887 567.853 617.784 557.453 620.279C547.053 622.774 527.435 625.949 513.725 627.31C500.016 628.444 478.034 629.578 464.561 629.578C451.325 629.578 432.888 631.166 423.906 632.98C414.924 634.795 403.342 638.424 398.379 640.919C393.651 643.414 386.324 648.176 382.069 651.579C377.815 654.981 370.96 663.146 366.469 669.269C362.215 675.62 356.778 686.28 354.414 693.084C352.051 699.888 349.451 706.466 348.742 707.827C348.033 709.187 344.723 702.383 341.178 693.084C337.632 683.785 332.196 671.991 328.887 667.001C325.578 662.012 319.432 654.527 314.941 650.218C310.45 646.135 303.832 641.145 299.814 639.104C295.796 637.29 289.65 634.795 285.632 633.434C281.614 632.3 251.831 630.486 219.449 629.578C169.576 627.991 157.521 627.083 142.63 623.001C132.939 620.279 116.157 613.929 105.521 608.939C89.4478 601.681 81.8841 596.238 63.9202 579.227C50.4474 566.299 37.92 551.784 32.0108 542.258C26.8107 533.639 19.4834 518.216 15.7015 508.237C9.556 491 9.08327 488.051 9.31964 452.669C9.556 422.277 10.5015 412.071 14.2833 398.236C17.1197 388.937 23.2652 371.473 27.9926 359.679C32.7199 347.885 39.5745 330.874 42.8836 322.256C47.611 309.101 48.7928 302.297 48.7928 282.565C48.7928 264.647 47.611 254.214 43.5928 240.605C40.7564 230.626 34.8472 215.203 30.5926 206.585C26.338 197.966 19.0107 184.811 14.2833 177.78C9.556 170.522 5.77414 163.945 6.01051 163.265C6.24687 162.584 26.5744 136.728 51.3928 106.109Z" fill="#F9F9F8"/>
<path fill-rule="evenodd" clip-rule="evenodd" d="M557.445 69.0217C558.389 68.7949 562.871 70.3823 567.353 72.1964C571.835 74.0106 575.609 76.9586 575.609 78.3192C575.374 79.9066 573.25 83.5349 570.892 86.2561C567.353 90.1112 564.522 91.245 559.097 90.3379C555.086 89.6576 549.897 90.3379 547.302 91.4718C544.707 92.6056 540.933 96.6875 539.045 100.543C537.158 104.171 535.979 108.479 536.686 109.613C537.394 110.747 539.989 111.881 542.584 111.881C545.179 111.881 555.322 107.799 564.994 102.81C574.666 97.8213 585.045 93.7395 587.876 93.7395C590.943 93.7395 596.84 95.7804 600.85 98.2748C605.097 100.769 610.286 105.758 612.174 109.613C614.061 113.242 615.712 119.138 615.712 122.539C615.712 126.167 613.117 132.97 609.579 137.959C606.276 142.948 601.558 148.618 599.435 150.432C597.312 152.473 593.066 155.647 589.763 157.915C586.225 160.183 579.384 161.77 572.543 161.77C564.286 161.77 560.04 160.41 549.897 151.566L555.086 145.216C559.804 139.547 560.984 139.32 567.353 141.588C573.015 143.402 576.081 143.175 581.979 140.454C586.225 138.413 590.707 134.785 592.122 132.29C593.302 129.796 594.481 125.941 594.481 123.673C594.717 121.632 593.066 118.23 590.943 116.416C587.404 113.468 585.045 113.922 568.297 122.539C558.153 127.982 546.83 132.29 543.056 132.29C539.517 132.29 533.148 130.249 528.902 127.755C523.712 124.58 520.646 120.725 519.23 114.602C518.051 109.84 517.815 103.264 518.994 99.4087C520.174 95.7804 525.599 88.297 531.261 82.8546C536.922 77.4121 544.471 72.1964 548.481 71.0626C552.256 70.1555 556.266 69.0217 557.21 69.0217H557.445ZM494.461 136.826C504.133 136.599 508.379 137.959 518.051 144.082C524.42 148.164 532.912 156.101 536.922 161.543C541.876 168.346 544.235 174.696 544.943 183.086C545.651 192.611 544.707 196.693 539.753 205.31C536.215 211.432 529.845 218.689 525.599 221.637C521.589 224.585 513.804 228.213 508.615 229.574C501.538 231.388 496.348 231.161 488.563 229.12C482.194 227.533 473.702 222.544 466.625 216.195C460.256 210.525 453.415 203.042 451.292 199.187C449.405 195.332 447.753 187.168 447.753 181.045C447.753 174.696 449.405 166.759 451.528 162.904C453.415 159.049 458.605 152.926 463.087 148.844C467.333 144.762 473.466 140.681 476.769 139.32C480.071 138.186 487.856 137.052 494.461 136.826ZM652.512 146.803C653.691 147.257 657.702 150.885 667.845 162.904L656.286 184.447C649.917 196.239 641.897 213.247 638.358 221.864C635.056 230.481 630.573 245.901 628.45 255.879C625.856 268.351 625.148 280.37 626.091 294.43C627.035 310.304 629.158 319.374 635.527 335.248C640.009 346.36 648.266 365.409 653.691 377.201C659.117 388.993 665.722 408.495 668.317 420.287C671.855 435.934 672.563 446.138 671.62 457.703C670.676 466.321 669.025 479.7 667.373 487.183C665.958 494.667 662.655 504.871 660.061 509.86C657.466 514.849 652.748 523.013 649.209 528.002C645.907 532.991 637.414 544.102 630.102 552.72C623.025 561.337 611.23 572.675 604.153 578.118C597.076 583.333 585.281 590.363 578.204 593.538C571.127 596.713 556.738 601.248 546.358 603.743C534.092 606.691 511.681 608.958 481.487 610.546C454.122 611.906 429.825 614.401 421.333 616.668C413.548 618.709 402.461 622.564 396.564 625.512C390.666 628.46 380.759 635.263 374.389 640.479C368.02 645.922 358.584 655.219 344.666 672L339.948 661.795C337.353 656.126 330.748 646.829 325.087 641.159C319.661 635.263 310.461 628.234 304.564 625.512C298.666 622.564 287.107 618.483 278.615 616.215C266.82 613.04 253.846 612.133 182.133 611.906L189.682 603.969C193.928 599.661 215.395 578.344 237.333 556.348C259.507 534.578 290.882 503.511 306.923 487.183C323.2 471.083 352.451 441.83 372.03 422.554C391.61 403.279 441.384 353.843 482.902 312.571C524.184 271.526 578.912 217.102 604.153 191.93C629.394 166.986 651.096 146.577 652.512 146.803ZM417.794 195.785C418.502 195.785 433.599 209.845 451.528 227.08C469.22 244.087 483.846 258.827 483.846 259.734C483.846 260.868 481.015 264.043 470.871 272.887L424.635 228.667L459.076 284.452L453.179 290.121C449.876 293.069 445.866 295.564 444.215 295.564C442.799 295.564 429.589 288.987 415.435 280.824C401.046 272.66 389.251 266.084 388.779 266.084C388.543 266.311 397.979 276.288 431.712 310.304L426.523 315.519C423.692 318.241 420.153 320.508 418.974 320.508C417.558 320.508 402.461 306.902 385.476 290.575C368.256 274.021 354.102 259.281 354.102 258.147C354.102 257.013 358.348 251.797 372.738 237.738L398.923 251.797C413.076 259.734 425.343 266.084 426.051 266.084C426.758 266.084 420.389 254.519 396.564 215.061L406.471 205.31C411.897 200.094 417.087 195.785 417.794 195.785ZM318.718 294.43C320.605 295.337 341.128 303.727 364.01 313.252C387.128 322.776 406.471 331.62 406.943 332.981C407.651 334.341 405.292 337.97 395.384 347.494L374.153 338.423L348.205 363.368L352.215 371.531C354.574 375.84 356.461 380.829 356.461 382.189C356.697 383.777 354.338 387.178 351.507 389.673C348.677 392.167 345.374 394.435 343.723 394.662C342.307 394.662 332.4 376.067 321.548 353.163C310.933 330.259 301.969 310.304 301.733 308.716C301.497 307.129 304.328 303.047 308.102 299.646C312.348 295.791 316.359 293.75 318.718 294.43ZM265.641 354.524C270.83 354.524 277.2 355.884 279.795 357.698C284.277 360.873 284.277 361.327 280.502 367.449C277.436 372.438 274.605 374.026 267.528 374.479C262.574 374.706 256.205 376.293 253.138 377.881C250.307 379.241 246.061 383.55 244.174 387.405C241.501 391.94 240.714 396.854 241.815 402.145C242.523 406.454 246.061 413.257 249.6 417.112C253.374 420.967 259.979 425.956 264.461 427.997C271.302 431.398 274.133 431.852 281.446 429.584C286.4 428.224 292.533 424.368 295.364 420.74C297.959 417.339 300.789 412.123 301.497 408.948C302.205 405.32 301.261 401.918 298.902 399.877C295.6 396.929 294.42 397.156 288.759 402.599C284.984 406 280.974 408.948 279.795 408.948C278.379 408.948 275.548 407.134 273.189 404.413C270.83 401.692 269.887 398.517 270.83 396.703C272.01 394.888 278.379 388.539 297.723 371.531L311.641 385.137C323.436 396.476 325.559 399.651 324.143 404.413C323.436 407.588 320.369 414.617 317.538 420.287C314.707 425.956 308.81 433.439 304.328 437.068C299.846 440.696 292.769 445.004 288.523 446.819C284.512 448.406 277.2 449.767 272.718 449.767C268.236 449.767 260.923 448.406 256.677 446.819C252.666 445.004 245.118 440.242 239.928 435.934C234.974 431.625 228.841 424.368 226.482 419.606C223.887 414.844 222 406.454 222 399.877C222 393.528 223.415 385.818 225.302 382.189C227.19 378.788 232.851 372.438 237.805 367.903C242.759 363.368 248.892 358.605 251.487 357.245C254.082 355.884 260.451 354.524 265.641 354.524ZM190.154 415.298L222.472 446.819C240.4 464.053 255.025 479.473 255.025 480.834C255.025 482.421 251.723 486.276 240.872 495.12L209.497 487.183C192.513 482.875 177.887 479.246 177.179 479.246C176.472 479.246 184.964 487.864 196.051 498.522C212.092 513.942 215.631 518.478 213.743 521.426C212.328 523.466 209.261 526.414 206.666 528.229C202.184 531.177 199.59 529.136 136.605 469.042L150.051 453.622L218.461 469.949L176.943 430.491L190.154 415.298ZM100.277 503.964C101.692 503.964 122.687 512.355 147.22 522.786C171.518 532.991 191.569 542.515 191.569 543.876C191.569 545.009 189.21 548.184 186.379 550.679C183.549 553.173 179.538 555.214 177.415 555.441C175.292 555.668 170.102 554.08 158.072 548.411L131.179 574.036L135.19 579.932C137.549 583.107 139.436 588.096 139.436 590.817C139.2 593.538 137.549 597.847 135.19 599.888C133.067 602.155 129.528 603.969 127.641 603.969C125.282 603.743 117.026 588.549 84 517.797L90.841 510.994C94.6154 507.139 98.8615 504.191 100.277 503.964Z" fill="#F10508"/>
<path d="M274.079 28.9721C282.577 26.9326 295.326 24.4398 302.408 23.3068C309.491 22.1737 331.21 21.7204 350.805 22.1737C371.344 22.6269 393.771 24.6664 403.923 26.9326C413.602 28.9721 431.308 33.731 442.876 37.3569C454.444 41.2093 471.442 47.3279 480.177 51.407C488.912 55.2595 496.231 58.8853 495.994 59.5651C495.994 60.245 391.411 161.089 263.455 283.914C135.735 406.739 30.6793 506.676 29.9711 505.997C29.2628 505.317 26.902 496.705 24.7773 486.734C22.6526 476.763 21 458.407 21 445.944C21 430.081 22.6526 417.843 25.9577 405.153C28.7907 395.182 36.8174 373.2 43.8998 356.431C50.9823 339.661 58.3008 318.586 60.6616 309.975C63.2584 298.644 64.2028 288.22 63.2585 273.716C62.5502 259.213 59.9533 246.976 54.7595 231.792C50.5101 220.008 41.3029 199.84 21.4722 163.808L77.4233 96.5034C108.114 59.3385 134.791 27.3858 136.443 25.5729C139.04 22.6269 142.582 25.1197 185.548 65.9104L198.533 58.2055C205.615 53.8998 222.141 46.4215 235.125 41.6626C248.11 36.677 265.58 31.0117 274.079 28.9721Z" fill="#0B098B"/>
<path d="M472.052 166.103C474.411 162.487 478.422 158.419 481.018 157.289C483.613 156.159 488.097 155.029 491.164 155.029C493.995 154.803 498.715 155.933 501.782 157.289C504.613 158.645 510.512 162.939 514.76 167.007C519.007 170.849 523.49 177.403 524.67 181.471C526.085 185.314 526.321 190.964 525.613 193.902C524.67 196.614 521.838 201.134 519.007 204.072C516.411 206.784 510.984 209.722 506.973 210.4C502.49 211.304 496.591 210.174 490.692 207.688C485.501 205.202 478.187 199.326 474.647 194.354C470.872 189.382 468.04 182.601 468.04 179.211C468.04 175.595 469.928 169.945 472.052 166.103Z" fill="#F9F9F8"/>
<path d="M334.962 334.024C331.659 327.47 328.827 321.142 328.591 319.786C328.591 318.656 334.254 320.238 341.097 323.176C347.939 326.34 353.838 329.504 354.31 330.408C354.546 331.538 351.715 335.154 340.861 345.777L334.962 334.024Z" fill="#F9F9F8"/>
<path d="M123.782 551.44C122.603 550.084 119.299 544.434 116.704 538.558C114.108 532.456 112.457 527.71 113.164 527.71C113.636 527.71 120.243 530.196 141.243 539.236L133.692 546.468C128.501 551.214 125.198 553.022 123.782 551.44Z" fill="#F9F9F8"/>
<path d="M71.4655 139.174C74.2994 135.13 80.9118 129.739 86.1073 127.493C91.3028 125.022 100.277 123 106.181 123C112.085 123 121.295 124.797 126.963 127.268C132.867 129.964 138.298 134.457 140.424 138.5C142.313 142.319 143.966 145.913 143.966 146.812C143.966 147.935 140.66 149.283 136.409 150.406C129.797 151.754 127.671 151.08 121.531 145.239C116.099 140.297 112.321 138.5 105.472 138.5C98.3875 138.5 94.8451 140.072 89.4135 145.239C83.2734 151.304 82.5649 153.551 82.5649 165.906C82.5649 173.768 83.5095 183.428 84.9265 187.246C86.3434 191.964 89.8858 196.007 94.3728 198.029C98.1514 199.826 104.291 201.399 107.598 201.399C111.14 201.399 116.336 198.703 120.114 195.109C123.656 191.739 127.199 187.696 127.671 185.899C128.38 183.877 130.741 183.203 136.409 184.326C140.896 185.225 143.966 187.022 143.966 189.043C143.966 190.841 142.313 195.333 140.424 199.152C138.534 202.971 132.867 208.138 128.143 210.833C121.767 214.428 115.391 216 105.945 216C95.5536 216 90.8304 214.652 83.0372 209.71C77.6056 206.341 70.9931 199.826 68.6316 195.109C66.27 190.616 63.4361 183.203 62.4915 178.935C61.5468 174.667 62.0191 165.457 63.4361 158.717C65.0892 151.978 68.6316 142.993 71.4655 139.174Z" fill="#F10508"/>
<path d="M200.644 125.022L208.437 124.123C212.452 123.674 224.26 123.674 234.415 124.123C244.333 124.572 255.669 126.594 259.684 128.391C263.698 130.188 268.894 134.457 271.492 137.826C274.089 141.42 277.395 149.732 278.812 156.471C280.229 163.21 280.702 173.319 279.757 178.935C278.812 184.551 276.451 191.964 274.562 195.783C272.436 199.601 268.658 204.319 265.824 206.565C262.99 208.812 257.086 211.732 252.599 212.855C248.112 214.203 234.887 214.877 201.825 213.754L200.644 125.022Z" fill="#F10508"/>
<path d="M163.567 206.341C163.095 200.949 164.039 198.928 167.11 198.254C169.235 197.804 171.597 197.355 172.305 197.13C173.014 197.13 174.667 197.804 176.084 198.703C177.501 199.601 179.39 202.297 180.098 204.768C181.043 207.239 180.807 210.609 179.862 212.181C178.917 213.754 175.139 214.877 171.124 214.428C164.984 213.754 164.039 212.855 163.567 206.341Z" fill="#F10508"/>
<path d="M297.941 207.014C297.469 203.196 298.65 199.601 300.303 198.703C301.956 197.804 304.081 196.906 305.262 196.906C306.207 196.906 308.568 197.355 310.458 198.029C312.819 198.703 314 202.072 314 207.014C314 214.428 313.528 214.877 306.443 214.203C299.594 213.754 298.65 212.855 297.941 207.014Z" fill="#F10508"/>
<path d="M221 200L221.458 169.612L221.688 139L235.67 140.341C246.902 141.234 250.569 142.799 254.695 147.267C259.28 152.183 259.967 155.758 259.967 170.282C260.196 184.359 259.28 188.828 255.383 193.744C251.257 199.553 249.423 200 221 200Z" fill="#0B098B"/>
</svg>
